<svg width="23" height="20" viewBox="0 0 23 20" fill="none" xmlns="http://www.w3.org/2000/svg">
<path d="M21.2027 8.21289L22.0252 5.55625C22.0682 5.41729 22.0738 5.27158 22.0416 5.13042C22.0095 4.98927 21.9404 4.85644 21.8397 4.74223C21.739 4.62802 21.6095 4.53549 21.4611 4.47181C21.3127 4.40813 21.1494 4.375 20.9839 4.375H10.2539C10.0168 4.37525 9.78642 4.44331 9.59825 4.56868C9.41007 4.69405 9.27455 4.86978 9.21258 5.06875L8.82985 6.30508C8.79795 6.27344 8.76471 6.24219 8.73012 6.21211C8.51661 6.02539 8.26263 5.87736 7.98288 5.77658C7.70313 5.6758 7.40316 5.62428 7.10036 5.625H7.00782C6.67562 5.62417 6.34653 5.68068 6.03963 5.79126C5.73273 5.90183 5.45411 6.06426 5.21992 6.26914L5.18219 6.30195C5.06906 6.14009 4.91512 6.00269 4.732 5.90011C4.54887 5.79754 4.34135 5.73247 4.12509 5.70983C3.90882 5.68718 3.68947 5.70754 3.48358 5.76938C3.27769 5.83122 3.09064 5.93292 2.93655 6.0668C2.8027 6.18265 2.69659 6.32043 2.62435 6.47216C2.5521 6.62389 2.51515 6.78656 2.51563 6.95078V9.2457L1.96758 9.72227C1.57166 10.0665 1.25759 10.4752 1.04331 10.925C0.829037 11.3748 0.71875 11.8569 0.71875 12.3438C0.71875 12.8306 0.829037 13.3127 1.04331 13.7625C1.25759 14.2123 1.57166 14.621 1.96758 14.9652L2.75686 15.652C2.95767 15.8266 3.22717 15.9284 3.51098 15.937C3.79479 15.9456 4.07179 15.8603 4.28611 15.6983C4.50042 15.5363 4.63609 15.3096 4.66575 15.064C4.69541 14.8184 4.61685 14.5722 4.44592 14.375H19.4063C19.6921 14.3747 19.9661 14.2758 20.1682 14.1C20.3703 13.9243 20.484 13.686 20.4844 13.4375C20.4847 13.2851 20.4418 13.1349 20.3595 13.0004C20.7735 12.8802 21.1495 12.6776 21.4574 12.4086C21.5247 12.3499 21.5625 12.2704 21.5625 12.1875C21.5625 12.1046 21.5247 12.0251 21.4574 11.9664L21.1416 11.6918C20.9276 11.5052 20.6818 11.3483 20.4129 11.2266C20.4606 11.0468 20.4846 10.863 20.4844 10.6785V10.259C20.4845 10.1217 20.4715 9.98462 20.4453 9.84922C20.9248 9.40582 21.1951 8.8219 21.2027 8.21328V8.21289ZM9.90707 5.23125C9.92758 5.1649 9.97267 5.10628 10.0354 5.06447C10.0981 5.02267 10.1749 5.00001 10.2539 5H19.5464C19.6016 4.99995 19.656 5.01097 19.7055 5.03218C19.755 5.0534 19.7982 5.08425 19.8317 5.12234C19.8653 5.16043 19.8883 5.20473 19.8989 5.2518C19.9096 5.29887 19.9076 5.34744 19.8932 5.39375L19.2441 7.49023C18.8506 7.64795 18.4908 7.86259 18.1799 8.125H15.7766C15.6932 7.77231 15.4725 7.4554 15.1517 7.2277C14.831 7 14.4297 6.87543 14.0156 6.875H9.39811L9.90707 5.23125ZM10.8432 13.75H3.74245L3.27795 13.3461C3.20134 13.2796 3.13408 13.2053 3.0776 13.125H10.8432C10.7606 13.3271 10.7606 13.5479 10.8432 13.75V13.75ZM3.35612 12.5H2.875C2.87399 12.2015 3.0023 11.9137 3.23438 11.6937V12.0312C3.23411 12.1935 3.27572 12.3536 3.35612 12.5V12.5ZM19.4063 13.75H11.8594C11.7641 13.75 11.6727 13.7171 11.6053 13.6585C11.5379 13.5999 11.5 13.5204 11.5 13.4375C11.5 13.3546 11.5379 13.2751 11.6053 13.2165C11.6727 13.1579 11.7641 13.125 11.8594 13.125H19.4063C19.5016 13.125 19.593 13.1579 19.6604 13.2165C19.7278 13.2751 19.7656 13.3546 19.7656 13.4375C19.7656 13.5204 19.7278 13.5999 19.6604 13.6585C19.593 13.7171 19.5016 13.75 19.4063 13.75ZM20.4844 8.17852C20.4854 8.51678 20.3773 8.84851 20.1722 9.13594C20.0385 8.91191 19.866 8.70716 19.6605 8.52891L19.152 8.97109C19.3472 9.13978 19.5019 9.34047 19.6073 9.56155C19.7126 9.78263 19.7664 10.0197 19.7656 10.259V10.6785C19.7656 10.7884 19.7541 10.8981 19.7315 11.0063C19.5071 10.9605 19.2774 10.9374 19.0469 10.9375V11.5625C19.3416 11.5617 19.6336 11.6119 19.9059 11.71C20.1781 11.8081 20.4253 11.9522 20.6331 12.134L20.6735 12.1687C20.3209 12.3853 19.8995 12.5011 19.4678 12.5V12.5016C19.4476 12.5004 19.4269 12.5 19.4063 12.5H11.5C11.3094 12.5 11.1266 12.4342 10.9918 12.3169C10.857 12.1997 10.7813 12.0408 10.7813 11.875C10.7813 11.7092 10.857 11.5503 10.9918 11.4331C11.1266 11.3158 11.3094 11.25 11.5 11.25H12.6397C12.9149 11.2493 13.1875 11.2961 13.4417 11.3877C13.696 11.4793 13.9268 11.6139 14.1207 11.7836L14.6293 11.3414C14.3686 11.1135 14.0585 10.9329 13.717 10.8099C13.3755 10.6869 13.0093 10.6241 12.6397 10.625H11.5C11.2476 10.6249 10.9997 10.6826 10.7811 10.7923C10.5625 10.902 10.381 11.0598 10.2548 11.2499C10.1287 11.44 10.0624 11.6556 10.0625 11.875C10.0626 12.0945 10.1293 12.31 10.2557 12.5H9.0859C9.25497 12.276 9.34464 12.0137 9.34375 11.7457V11.3793C9.34379 11.1982 9.30279 11.0188 9.22309 10.8514C9.1434 10.6841 9.02656 10.532 8.87926 10.4039C8.73196 10.2758 8.55708 10.1742 8.36462 10.1049C8.17215 10.0356 7.96587 9.99996 7.75756 10H6.82813V10.625H7.75756C7.98757 10.6251 8.20811 10.7047 8.37075 10.8461C8.53339 10.9875 8.62483 11.1793 8.625 11.3793V11.7457C8.62483 11.9457 8.53339 12.1375 8.37075 12.2789C8.20811 12.4203 7.98757 12.4999 7.75756 12.5H5.62826C5.70866 12.3536 5.75027 12.1935 5.75 12.0312V11.5625C5.74962 11.314 5.63591 11.0757 5.43381 10.9C5.2317 10.7242 4.9577 10.6253 4.67188 10.625V11.25C4.76715 11.2501 4.85849 11.2831 4.92585 11.3417C4.99322 11.4002 5.03113 11.4797 5.03125 11.5625V12.0312C5.03125 12.1556 4.97446 12.2748 4.87337 12.3627C4.77227 12.4506 4.63516 12.5 4.49219 12.5C4.34922 12.5 4.21211 12.4506 4.11102 12.3627C4.00992 12.2748 3.95313 12.1556 3.95313 12.0312V10.9375C3.95309 10.8757 3.93198 10.8153 3.89248 10.7639C3.85298 10.7125 3.79686 10.6725 3.73119 10.6488C3.66553 10.6252 3.59328 10.619 3.52357 10.631C3.45385 10.643 3.3898 10.6727 3.3395 10.7164L2.76988 11.2121C2.57534 11.3812 2.42102 11.582 2.31573 11.803C2.21044 12.024 2.15625 12.2608 2.15625 12.5C2.15625 12.7392 2.21044 12.976 2.31573 13.197C2.42102 13.418 2.57534 13.6188 2.76988 13.7879L3.83498 14.7145C3.87261 14.7468 3.90244 14.7854 3.92272 14.8279C3.94301 14.8705 3.95334 14.9161 3.95313 14.9621C3.95307 15.055 3.91059 15.1441 3.83504 15.2098C3.75948 15.2755 3.65703 15.3124 3.55018 15.3125C3.49724 15.3127 3.44478 15.3037 3.39588 15.2861C3.34698 15.2684 3.30261 15.2425 3.26537 15.2098L2.47565 14.5234C1.81093 13.9453 1.4375 13.1613 1.4375 12.3438C1.4375 11.5262 1.81093 10.7422 2.47565 10.1641L3.12926 9.59609C3.1966 9.53742 3.23441 9.4579 3.23438 9.375V6.95078C3.23438 6.78502 3.3101 6.62605 3.44489 6.50884C3.57969 6.39163 3.7625 6.32578 3.95313 6.32578C4.14375 6.32578 4.32657 6.39163 4.46136 6.50884C4.59615 6.62605 4.67188 6.78502 4.67188 6.95078C4.67257 7.183 4.62032 7.41303 4.51816 7.62759C4.41599 7.84214 4.26594 8.03696 4.07666 8.20078L4.05825 8.21641L4.56676 8.65859L4.58473 8.64258C5.08713 8.20834 5.37578 7.62131 5.38973 7.00547L5.72799 6.71094C5.89568 6.56434 6.09513 6.44812 6.31481 6.369C6.53449 6.28988 6.77004 6.24944 7.00782 6.25H7.10036C7.30875 6.24949 7.51519 6.28493 7.70773 6.35426C7.90027 6.42359 8.07508 6.52544 8.22206 6.65391C8.48006 6.87833 8.625 7.18267 8.625 7.5C8.625 7.81733 8.48006 8.12167 8.22206 8.34609L8.01138 8.52891L8.51988 8.97109L8.73013 8.78789C8.92525 8.61916 9.07996 8.41846 9.18529 8.19739C9.29062 7.97633 9.34448 7.73929 9.34375 7.5H14.0156C14.3016 7.5 14.5758 7.59877 14.778 7.77459C14.9802 7.9504 15.0938 8.18886 15.0938 8.4375C15.0938 8.68614 14.9802 8.9246 14.778 9.10041C14.5758 9.27623 14.3016 9.375 14.0156 9.375H12.5781C12.4828 9.375 12.3914 9.34208 12.324 9.28347C12.2566 9.22487 12.2188 9.14538 12.2188 9.0625C12.2188 8.97962 12.2566 8.90013 12.324 8.84153C12.3914 8.78292 12.4828 8.75 12.5781 8.75H13.2969V8.125H12.5781C12.2922 8.125 12.018 8.22377 11.8158 8.39959C11.6136 8.5754 11.5 8.81386 11.5 9.0625C11.5 9.31114 11.6136 9.5496 11.8158 9.72541C12.018 9.90123 12.2922 10 12.5781 10H14.0156C14.4297 9.99957 14.831 9.875 15.1517 9.6473C15.4725 9.4196 15.6932 9.10269 15.7766 8.75H18.3281C18.4235 8.75003 18.5149 8.71715 18.5824 8.65859L18.6439 8.60469C19.1386 8.17236 19.7876 7.89919 20.4844 7.83008V8.17852ZM20.0608 7.25703L20.5873 5.55625C20.6448 5.37307 20.6365 5.17896 20.5634 5H20.9839C21.0391 4.99999 21.0935 5.01102 21.143 5.03224C21.1925 5.05346 21.2357 5.0843 21.2693 5.12237C21.3028 5.16044 21.3259 5.20472 21.3366 5.25178C21.3473 5.29884 21.3455 5.34742 21.3312 5.39375L20.7755 7.18789C20.5353 7.19149 20.296 7.21463 20.0608 7.25703V7.25703Z" fill="#454B73"/>
<path d="M17.6094 10.3125V10.9375C17.6094 10.9993 17.5883 11.0597 17.5488 11.1111C17.5093 11.1625 17.4531 11.2025 17.3875 11.2262C17.3218 11.2498 17.2495 11.256 17.1798 11.244C17.1101 11.232 17.0461 11.2023 16.9958 11.1586L16.7415 10.9375H16.6377C16.6036 10.9664 16.5811 11.004 16.5735 11.0449C16.5677 11.0748 16.5703 11.1054 16.581 11.1343C16.5917 11.1631 16.6102 11.1893 16.635 11.2105L16.7855 11.3414L16.277 11.7836L16.1265 11.6527C15.9734 11.5196 15.8779 11.3446 15.8562 11.1573C15.8346 10.9699 15.8882 10.7819 16.0079 10.625C15.8882 10.4681 15.8346 10.28 15.8562 10.0927C15.8779 9.90539 15.9734 9.73033 16.1265 9.59726L16.277 9.4664L16.7855 9.90859L16.635 10.0394C16.6102 10.0607 16.5917 10.0869 16.581 10.1157C16.5703 10.1445 16.5677 10.1752 16.5735 10.2051C16.5811 10.2459 16.6036 10.2836 16.6377 10.3125H16.7415L16.9958 10.0914C17.0461 10.0477 17.1101 10.018 17.1798 10.006C17.2495 9.99395 17.3218 10.0002 17.3875 10.0238C17.4531 10.0475 17.5092 10.0875 17.5487 10.1389C17.5883 10.1903 17.6094 10.2507 17.6094 10.3125V10.3125Z" fill="#454B73"/>
<path d="M18.2226 10.221L17.7144 9.77903C17.7952 9.70914 17.8592 9.626 17.9029 9.53443C17.9465 9.44286 17.9688 9.34468 17.9685 9.24557V9.0625H18.6872V9.24557C18.6878 9.42679 18.647 9.60631 18.5673 9.77374C18.4875 9.94117 18.3703 10.0932 18.2226 10.221Z" fill="#454B73"/>
<path d="M18.6872 12.1875H17.9685V12.0044C17.9688 11.9053 17.9465 11.8071 17.9029 11.7156C17.8592 11.624 17.7952 11.5409 17.7144 11.471L18.2226 11.029C18.3703 11.1568 18.4875 11.3088 18.5673 11.4763C18.647 11.6437 18.6878 11.8232 18.6872 12.0044V12.1875Z" fill="#454B73"/>
</svg>
