<svg width="12" height="9" viewBox="0 0 12 9" fill="none" xmlns="http://www.w3.org/2000/svg">
<path d="M8.36101 0.175415H3.64882C1.92199 0.175415 0.51709 1.5803 0.51709 3.30712V5.12176C0.51709 6.84858 1.92199 8.25345 3.64882 8.25345H8.36101C10.0878 8.25345 11.4927 6.84858 11.4927 5.12176V3.30712C11.4927 1.5803 10.0878 0.175415 8.36101 0.175415ZM8.36101 0.907121C8.78052 0.907121 9.18052 1.0242 9.52198 1.21932L5.99028 3.76566L2.30247 1.31687C2.68296 1.05346 3.15126 0.907121 3.64882 0.907121H8.36101ZM1.2488 3.30712C1.2488 2.75103 1.44392 2.24371 1.76587 1.84371L3.81466 3.19981L1.65857 6.45833C1.39515 6.07785 1.2488 5.60955 1.2488 5.11199V3.30712ZM3.64882 7.51199C3.09272 7.51199 2.5854 7.31687 2.17564 6.99492L4.41953 3.59004L6.00978 4.6437L7.44393 3.60956L9.72685 7.07297C9.33661 7.34614 8.86832 7.50223 8.36101 7.50223H3.64882V7.51199ZM10.761 5.11199C10.761 5.65833 10.5659 6.15589 10.2635 6.55589L8.03907 3.19004L10.1171 1.68761C10.5073 2.11688 10.7513 2.68272 10.7513 3.29736V5.11199H10.761Z" fill="#454B73"/>
</svg>
