<svg width="21" height="15" viewBox="0 0 21 15" fill="none" xmlns="http://www.w3.org/2000/svg">
<path d="M20.9713 11.8821L19.7799 3.6749C19.6308 2.65406 19.1109 1.72024 18.3157 1.04507C17.5205 0.36991 16.5034 -0.00122603 15.4513 -0.000119604H5.5482C3.373 -0.000119604 1.52573 1.56417 1.21967 3.6749L0.0282339 11.8821C-0.0547815 12.4489 0.0463548 13.0269 0.317302 13.5343C0.588249 14.0416 1.01525 14.4524 1.53777 14.7085C2.06028 14.9646 2.65178 15.0529 3.22839 14.961C3.80501 14.8691 4.33746 14.6016 4.75026 14.1964L7.22058 11.7856H13.7789L16.2383 14.1964C16.763 14.7107 17.4735 14.9999 18.2058 14.9999C19.911 14.9999 21.2118 13.5321 20.9713 11.8821ZM9.4067 6.42848H7.22058V8.57134H6.12752V6.42848H3.94139V5.35704H6.12752V3.21418H7.22058V5.35704H9.4067V6.42848ZM13.7789 5.35704C13.1778 5.35704 12.6859 4.8749 12.6859 4.28561C12.6859 3.69632 13.1778 3.21418 13.7789 3.21418C14.3801 3.21418 14.872 3.69632 14.872 4.28561C14.872 4.8749 14.3801 5.35704 13.7789 5.35704ZM15.9651 8.57134C15.3639 8.57134 14.872 8.0892 14.872 7.49991C14.872 6.91062 15.3639 6.42848 15.9651 6.42848C16.5663 6.42848 17.0581 6.91062 17.0581 7.49991C17.0581 8.0892 16.5663 8.57134 15.9651 8.57134Z" fill="#454B73"/>
</svg>
