<svg width="21" height="23" viewBox="0 0 21 23" fill="none" xmlns="http://www.w3.org/2000/svg">
<path fill-rule="evenodd" clip-rule="evenodd" d="M0.00185478 3.46326V18.1774H20.2414V17.6235H2.02571V14.6336L20.2414 14.6388V14.0909H2.02571V11.0935H20.2414V10.5508H2.02571V7.55346L20.2414 7.55939V7.00481L2.02571 7.01L2.01272 4.01265L20.2396 4.01858V3.464C20.2396 3.464 6.77931 3.46511 0 3.464" fill="#454B73"/>
<path fill-rule="evenodd" clip-rule="evenodd" d="M9.02549 22.2572C9.68246 22.7487 10.299 22.8051 10.9196 22.5217C11.5751 22.2223 12.1045 21.6433 12.0848 20.8053C12.0651 19.9669 11.9101 18.6485 11.7432 17.5872C11.426 17.6239 11.1036 17.6536 10.7909 17.6647C8.18675 17.7578 5.59781 14.9938 6.61128 11.3658C7.02527 9.87825 7.90074 8.70157 9.0522 7.8402C9.49105 7.51152 10.1321 6.87644 10.1321 6.87644C10.1321 6.87644 10.0601 5.93976 9.97478 5.39593C9.72735 3.83901 9.92915 2.30286 10.8132 0.958129C10.9397 0.764858 11.0643 0.567507 11.2112 0.393526C11.6819 -0.160689 12.0162 -0.136577 12.3478 0.51075C13.7738 3.28925 13.2875 6.12339 11.1177 8.27719C10.9848 8.4063 10.8488 8.5321 10.7097 8.65445L11.0773 10.9774C11.1804 10.9948 11.2609 11.0175 11.3407 11.019C13.5327 11.075 14.8229 13.2058 14.0012 15.4189C13.6877 16.2647 13.142 16.9228 12.3934 17.3286C12.1212 17.4766 12.0325 17.5071 12.0325 17.5071C12.1486 18.3399 12.3215 19.6935 12.3756 20.5638C12.5036 21.9337 11.4397 23.0911 10.082 22.9936C9.59343 22.9591 9.08633 22.7832 8.64748 22.5443C7.86513 22.1159 7.62511 21.1417 8.0098 20.2852C8.25797 19.7276 8.73726 19.4435 9.28628 19.5281C9.74775 19.5985 10.1747 20.0174 10.2741 20.4978C10.3929 21.0753 10.1666 21.6088 9.65687 21.9248C9.48511 22.0302 9.3 22.1148 9.02512 22.2572H9.02549ZM11.6786 17.1695C11.4787 15.8411 11.2668 14.5542 11.101 13.2618C11.0439 12.8174 10.8625 12.7669 10.5275 12.8667C9.57118 13.1501 9.17499 14.3335 9.73588 15.2839C9.89206 15.5469 10.1028 15.7695 10.3239 16.0566C9.4495 15.7773 8.81256 14.9274 8.78585 13.8783C8.75209 12.4216 9.58416 11.6006 10.7712 11.0661C10.6655 10.3698 10.5598 9.67756 10.4366 8.87852C9.24139 9.82855 8.21606 10.8127 7.57689 12.2064C6.97148 13.5318 7.02267 14.7835 7.94525 15.9082C8.93312 17.1157 10.1859 17.4904 11.6771 17.1702L11.6786 17.1695ZM10.4077 6.61714C11.4434 5.67749 12.3267 4.75862 12.6409 3.38607C12.7025 3.11935 12.6561 2.80477 12.5967 2.52841C12.4702 1.94451 12.0418 1.74679 11.5629 2.04801C11.3811 2.16227 11.2064 2.33736 11.0951 2.52841C10.384 3.75146 10.2871 5.10028 10.4058 6.61639L10.4077 6.61714ZM11.331 12.8055C11.5428 14.233 11.7457 15.6779 11.9535 17.0749C12.994 16.7514 13.4663 15.6871 13.2556 14.368C13.0779 13.2514 12.4754 12.7328 11.331 12.8059" fill="#454B73"/>
</svg>
