<svg width="8" height="10" viewBox="0 0 8 10" fill="none" xmlns="http://www.w3.org/2000/svg">
<path d="M5.36569 6.25823C5.56081 6.08262 5.81447 5.99482 6.06813 6.01433C6.33154 6.03384 6.56569 6.15091 6.7413 6.34604L7.72665 7.45823C7.8925 7.64359 7.97055 7.87773 7.97055 8.12163C7.97055 8.3948 7.84373 8.65823 7.63885 8.83383L7.51201 8.94115C7.4925 8.96066 7.47299 8.97041 7.45348 8.98017L5.18032 6.40457C5.19983 6.38506 5.20958 6.36554 5.22909 6.35579L5.36569 6.25823ZM0.555911 1.04848C0.536399 1.05824 0.526655 1.07775 0.507143 1.09727L2.77056 3.67287C2.79008 3.66311 2.80959 3.64361 2.8291 3.63385L2.94617 3.52653C3.15104 3.34117 3.26811 3.07776 3.27787 2.81434C3.28763 2.57044 3.19007 2.33629 3.03397 2.15092L2.04859 1.03873C1.68762 0.638734 1.07301 0.599713 0.673009 0.950932L0.555911 1.04848ZM6.92664 9.04847L5.05349 6.91189C4.94617 7.03872 4.85837 7.1753 4.80959 7.33139C4.43885 7.1753 3.6291 6.77531 2.95593 6.01433C2.27301 5.2436 1.94129 4.33628 1.81446 3.91677C1.97055 3.87774 2.11691 3.80946 2.25349 3.72165L0.380309 1.59484C0.214455 1.7802 0.107131 2.01434 0.0681064 2.25824C0.0681064 2.25824 0.0681266 2.26799 0.0583705 2.29726V2.30702C0.0486144 2.36556 0.0291034 2.50214 0.0291034 2.69726C0.0193473 3.53628 0.243721 5.23385 1.90226 7.12652C4.08762 9.60456 6.01934 9.32163 6.24373 9.28261C6.48763 9.26309 6.73152 9.18505 6.92664 9.04847Z" fill="#454B73"/>
</svg>
