<svg width="50" height="28" viewBox="0 0 50 28" fill="none" xmlns="http://www.w3.org/2000/svg">
<g clip-path="url(#clip0)">
<path d="M25.814 9.27427L28.1928 9.04241C28.2471 9.62887 28.3466 10.0653 28.5094 10.379C28.7717 10.87 29.1335 11.1155 29.6129 11.1155C29.9656 11.1155 30.246 10.9927 30.436 10.7336C30.6169 10.529 30.7254 10.2017 30.7254 9.86073C30.7254 9.5334 30.6259 9.21971 30.4541 9.01513C30.2732 8.76964 29.848 8.52415 29.1787 8.30593C28.0843 7.93769 27.2974 7.4467 26.8361 6.81932C26.3748 6.23286 26.1125 5.37363 26.1306 4.45985C26.1306 3.83247 26.2572 3.2051 26.4924 2.68683C26.7637 2.10037 27.1346 1.63666 27.5778 1.37753C28.0572 1.06384 28.7265 0.900177 29.5677 0.900177C30.5988 0.900177 31.3857 1.18659 31.9284 1.77305C32.4711 2.34587 32.7967 3.27329 32.8962 4.54168L30.5445 4.74626C30.4812 4.20071 30.3546 3.8052 30.1465 3.54606C29.9385 3.28693 29.6672 3.16418 29.3144 3.16418C29.025 3.16418 28.8079 3.25965 28.6632 3.43695C28.5275 3.60062 28.4371 3.84611 28.4461 4.11888C28.4461 4.32346 28.5185 4.5144 28.627 4.63715C28.7446 4.80081 29.025 4.95084 29.4682 5.08722C30.5626 5.44183 31.3405 5.79643 31.8198 6.16467C32.2992 6.53291 32.6429 6.98299 32.8509 7.51489C33.068 8.06043 33.1766 8.68781 33.1675 9.32882C33.1675 10.0926 33.0228 10.8563 32.7334 11.4974C32.4349 12.1656 32.0188 12.6839 31.5304 12.9976C31.0148 13.3386 30.3636 13.5159 29.5857 13.5159C28.2109 13.5159 27.2612 13.1203 26.7276 12.3157C26.1939 11.511 25.8774 10.5017 25.814 9.27427ZM0.569826 13.3113V1.11839H4.73951C5.50832 1.11839 6.10528 1.21386 6.5123 1.41844C6.91028 1.60938 7.26303 2.0049 7.49819 2.53681C7.76049 3.12327 7.88712 3.8052 7.87808 4.5144C7.90521 5.7146 7.49819 6.86024 6.80174 7.46034C6.53039 7.69219 6.23191 7.85586 5.92439 7.93769C6.15051 8.03316 6.37663 8.19682 6.57562 8.38776C6.72938 8.5787 6.85601 8.79692 6.97359 9.02877C7.10926 9.26063 7.22685 9.51976 7.32634 9.79253L8.53835 13.3249H5.69826L4.35962 9.57432C4.18777 9.09697 4.04305 8.78328 3.90738 8.63325C3.72648 8.44231 3.50941 8.34684 3.29233 8.34684H3.07525V13.2977H0.569826V13.3113ZM3.07525 6.05556H4.1335C4.35962 6.02829 4.5767 5.97373 4.79378 5.8919C4.95659 5.85098 5.1013 5.7146 5.2008 5.51002C5.44501 5.01903 5.40883 4.32346 5.11035 3.90067C4.94754 3.69609 4.63097 3.58698 4.17873 3.58698H3.07525V6.05556ZM0 23.7584L2.3788 23.5266C2.43307 24.113 2.53256 24.5495 2.69537 24.8632C2.94863 25.3542 3.31946 25.6133 3.79884 25.6133C4.15159 25.6133 4.43198 25.4905 4.62192 25.2314C4.80282 25.0132 4.91136 24.6995 4.91136 24.3585C4.91136 24.0312 4.81187 23.7175 4.64001 23.5129C4.45912 23.2675 4.03401 23.022 3.35564 22.8037C2.26122 22.4355 1.47431 21.9445 1.01302 21.3171C0.551737 20.7307 0.289436 19.8714 0.307525 18.9577C0.307525 18.3303 0.434153 17.7029 0.66932 17.1846C0.940666 16.5982 1.31151 16.1345 1.7547 15.8753C2.23408 15.5617 2.9034 15.398 3.74457 15.398C4.77569 15.398 5.56259 15.6844 6.10528 16.2709C6.64797 16.8573 6.96454 17.7711 7.06404 19.0395L4.71237 19.2441C4.64906 18.6985 4.52243 18.303 4.3144 18.0439C4.11541 17.7847 3.83502 17.662 3.48227 17.6756C3.19284 17.6756 2.97576 17.7711 2.83104 17.962C2.68632 18.1257 2.60492 18.3712 2.61397 18.644C2.61397 18.8486 2.68632 19.0395 2.79486 19.1622C2.91245 19.3259 3.19284 19.4759 3.63604 19.6123C4.73046 19.9669 5.50832 20.3215 5.9877 20.6898C6.46708 21.058 6.81078 21.5081 7.01881 22.04C7.23589 22.5855 7.34443 23.2129 7.34443 23.8403C7.34443 24.604 7.19067 25.3542 6.91028 25.9952C6.6118 26.6635 6.19573 27.1817 5.70731 27.4954C5.19175 27.8364 4.54052 28.0137 3.76266 28.0137C2.38784 28.0137 1.43813 27.6182 0.904486 26.8135C0.370839 25.9952 0.0723589 24.9859 0 23.7584H0Z" fill="black"/>
<path d="M12.0293 22.8037L14.2182 23.7993C14.1006 24.6313 13.8564 25.4223 13.5217 26.1179C13.2142 26.7316 12.8072 27.209 12.3459 27.5227C11.8755 27.8364 11.2786 28 10.555 28C9.67764 28 8.95405 27.8091 8.40231 27.4272C7.84153 27.0453 7.36215 26.3634 6.95513 25.3951C6.54811 24.4267 6.34912 23.1856 6.34912 21.6717C6.34912 19.6532 6.70187 18.0984 7.41642 17.021C8.13096 15.9435 9.13494 15.398 10.4374 15.398C11.4595 15.398 12.2554 15.7117 12.8433 16.3254C13.4222 16.9528 13.8564 17.9075 14.1458 19.1895L11.9389 19.926C11.8846 19.6396 11.8032 19.3532 11.6946 19.1077C11.559 18.8213 11.3871 18.603 11.1791 18.4394C10.9711 18.2757 10.7359 18.2075 10.5007 18.2075C9.93089 18.2075 9.49674 18.5485 9.19826 19.2441C8.97214 19.7487 8.85455 20.5534 8.85455 21.6444C8.85455 22.9947 8.99023 23.9221 9.26157 24.4267C9.53292 24.9313 9.9128 25.1768 10.4103 25.1768C10.8897 25.1768 11.2514 24.9723 11.4957 24.5767C11.7399 24.1539 11.9208 23.5675 12.0293 22.8037ZM17.1397 15.6026H19.6361V19.8714H22.3676V15.6026H24.8821V27.7954H22.3676V22.8583H19.6361V27.7954H17.1397V15.6026V15.6026Z" fill="black"/>
<path d="M24.5386 21.699C24.5386 19.7078 24.9094 18.153 25.642 17.0482C26.3747 15.9435 27.4058 15.3843 28.7173 15.3843C30.065 15.3843 31.0961 15.9299 31.8287 17.021C32.5614 18.1121 32.9232 19.6396 32.9232 21.6035C32.9232 23.0356 32.7604 24.1949 32.4438 25.1086C32.1363 26.0088 31.6569 26.7453 31.069 27.2363C30.463 27.7409 29.7122 28 28.8168 28C27.9033 28 27.1525 27.7818 26.5556 27.3454C25.9405 26.8817 25.434 26.1588 25.0994 25.2723C24.7285 24.3176 24.5386 23.1311 24.5386 21.699ZM27.035 21.7126C27.035 22.9401 27.1887 23.8266 27.4872 24.3722C27.7857 24.9041 28.2017 25.1768 28.7263 25.1768C29.26 25.1768 29.6761 24.9177 29.9745 24.3858C30.273 23.8539 30.4177 22.9128 30.4177 21.549C30.4177 20.4033 30.264 19.5577 29.9565 19.0395C29.6489 18.5076 29.2329 18.2484 28.7083 18.2484C28.247 18.2212 27.8038 18.5212 27.4962 19.0531C27.1887 19.585 27.035 20.4715 27.035 21.7126V21.7126ZM35.4829 21.699C35.4829 19.7078 35.8537 18.153 36.5863 17.0482C37.319 15.9435 38.3501 15.3843 39.6616 15.3843C41.0093 15.3843 42.0494 15.9299 42.773 17.021C43.4966 18.1121 43.8675 19.6396 43.8675 21.6035C43.8675 23.0356 43.7046 24.1949 43.3881 25.1086C43.0806 26.0088 42.6012 26.7453 42.0133 27.2363C41.4072 27.7409 40.6565 28 39.7611 28C38.8476 28 38.0968 27.7818 37.4999 27.3454C36.8848 26.8817 36.3783 26.1588 36.0436 25.2723C35.6728 24.3176 35.4829 23.1311 35.4829 21.699V21.699ZM37.9792 21.7126C37.9792 22.9401 38.133 23.8266 38.4315 24.3722C38.73 24.9041 39.146 25.1768 39.6706 25.1768C40.2043 25.1768 40.6203 24.9177 40.9188 24.3858C41.2173 23.8539 41.362 22.9128 41.362 21.549C41.362 20.4033 41.2083 19.5577 40.9007 19.0395C40.5932 18.5076 40.1771 18.2484 39.6525 18.2484C39.1913 18.2212 38.739 18.5212 38.4405 19.0531C38.133 19.585 37.9792 20.4715 37.9792 21.7126V21.7126Z" fill="black"/>
<path d="M43.6052 15.6025H46.1016V24.7949H50V27.7954H43.5962V15.6025H43.6052Z" fill="black"/>
<path d="M40.8543 14.8989C43.3676 12.043 44.1426 7.20174 42.5853 4.08569C41.028 0.969634 37.7282 0.758753 35.2148 3.61467C32.7015 6.47059 31.9265 11.3118 33.4838 14.4279C35.0411 17.5439 38.3409 17.7548 40.8543 14.8989Z" fill="white"/>
<path d="M40.8543 14.8989C43.3676 12.043 44.1426 7.20174 42.5853 4.08569C41.028 0.969634 37.7282 0.758753 35.2148 3.61467C32.7015 6.47059 31.9265 11.3118 33.4838 14.4279C35.0411 17.5439 38.3409 17.7548 40.8543 14.8989Z" fill="white"/>
<path d="M40.8543 14.8989C43.3676 12.043 44.1426 7.20174 42.5853 4.08569C41.028 0.969634 37.7282 0.758753 35.2148 3.61467C32.7015 6.47059 31.9265 11.3118 33.4838 14.4279C35.0411 17.5439 38.3409 17.7548 40.8543 14.8989Z" stroke="black" stroke-miterlimit="10"/>
<path d="M35.4923 8.36046L36.3968 7.40576L37.5093 9.79251C37.6993 10.1744 37.844 10.5835 37.9525 11.0336C38.0158 11.3746 37.9977 11.7428 37.9073 12.0702C37.7897 12.4793 37.5998 12.8203 37.3465 13.0658C37.048 13.3795 36.7948 13.5568 36.5777 13.6113C36.3697 13.6659 36.1526 13.6113 35.9536 13.4749C35.7365 13.3113 35.5466 13.0794 35.4019 12.7794L36.1797 11.6883C36.243 11.8383 36.3244 11.9747 36.4149 12.0838C36.4782 12.152 36.5506 12.1929 36.632 12.1929C36.6953 12.1929 36.7586 12.152 36.8038 12.0974C36.8943 12.0156 36.9576 11.8519 36.9485 11.6883C36.9214 11.4564 36.8581 11.2246 36.7586 11.0473L35.4923 8.36046V8.36046ZM38.2058 9.87434L39.0288 8.89236C39.1193 9.05603 39.2369 9.17877 39.3635 9.24697C39.5444 9.3288 39.7343 9.27424 39.8881 9.09694C39.9966 8.98783 40.0871 8.83781 40.1233 8.64687C40.1775 8.40137 40.0871 8.1286 39.9243 8.04677C39.8972 8.03313 39.87 8.01949 39.8429 8.01949C39.7343 8.00586 39.5444 8.07405 39.264 8.25135C38.8027 8.53776 38.4409 8.64687 38.1696 8.60595C37.9073 8.56504 37.6631 8.36046 37.5184 8.01949C37.4098 7.78764 37.3555 7.51487 37.3465 7.24209C37.3465 6.92841 37.4008 6.61472 37.5184 6.35559C37.6902 5.98735 37.8982 5.67366 38.1515 5.42816C38.5314 5.03265 38.866 4.84171 39.1555 4.84171C39.4449 4.84171 39.7163 5.04628 39.9695 5.46908L39.1555 6.43742C38.9927 6.12373 38.6851 6.05554 38.4771 6.30103L38.45 6.34195C38.3595 6.42378 38.2962 6.54653 38.26 6.69655C38.2329 6.80566 38.251 6.92841 38.2962 7.02388C38.3324 7.09207 38.3867 7.14663 38.45 7.14663C38.5223 7.16026 38.649 7.10571 38.8299 6.98296C39.2821 6.69655 39.6258 6.53289 39.861 6.47833C40.06 6.42378 40.268 6.45106 40.4579 6.5738C40.6298 6.68291 40.7745 6.87385 40.874 7.10571C41.0006 7.37848 41.073 7.70581 41.082 8.04677C41.0911 8.40137 41.0278 8.74234 40.9011 9.04239C40.7383 9.41063 40.5303 9.72432 40.2861 9.96981C39.7886 10.4881 39.3816 10.7063 39.056 10.6245C38.7032 10.5426 38.4138 10.2699 38.2058 9.87434V9.87434Z" fill="black"/>
</g>
<defs>
<clipPath id="clip0">
<rect width="50" height="28" fill="white"/>
</clipPath>
</defs>
</svg>
