<svg width="23" height="18" viewBox="0 0 23 18" fill="none" xmlns="http://www.w3.org/2000/svg">
<path d="M20.6468 6.659L16.8418 1.25996L18.6536 0L22.4575 5.39904L20.6468 6.659Z" fill="#454B73"/>
<path d="M18.5639 9.44913L16.6625 6.74793L7.60665 13.0489L9.50802 15.7479L7.6973 17.009L2.62549 9.80944L4.43622 8.54946L6.33759 11.2496L15.3934 4.9486L13.4921 2.2485L15.3028 0.988525L20.3746 8.18696L18.5639 9.44803V9.44913Z" fill="#454B73"/>
<path d="M21.1893 3.59872L23.0001 2.33867L21.7321 0.539215L19.9214 1.79927L21.1893 3.59872Z" fill="#454B73"/>
<path d="M6.15866 16.7398L2.3537 11.3407L0.542969 12.6007L4.34683 17.9998L6.15866 16.7398Z" fill="#454B73"/>
<path d="M3.07867 16.2007L1.26795 17.4606L0 15.6613L1.81072 14.4014L3.07867 16.2007Z" fill="#454B73"/>
</svg>
